<svg xmlns="http://www.w3.org/2000/svg" xmlns:xlink="http://www.w3.org/1999/xlink" width="500" height="500" viewBox="0 0 500 500">
  <defs>
    <clipPath id="clip-1">
      <rect width="500" height="500"/>
    </clipPath>
  </defs>
  <g clip-path="url(#clip-1)">
    <path data-name="Path 1" d="M504.92,184.48l43.074-43.074-59.4-59.4-43.074,43.074A180.962,180.962,0,0,0,392,102.925V42H308v60.93a180.766,180.766,0,0,0-53.52,22.16L211.408,82.015l-59.4,59.391,43.074,43.074A180.962,180.962,0,0,0,172.927,238H112v84h60.93a180.766,180.766,0,0,0,22.16,53.52l62.676-62.676A97.828,97.828,0,0,1,400.833,196.332a4.616,4.616,0,0,1-.211,7.84L349.813,233.5l.207,46.473,40.145,23.418,50.809-29.332a4.629,4.629,0,0,1,6.922,3.824c.016.715.105,1.4.105,2.113a97.775,97.775,0,0,1-130.844,92.238l-62.676,62.68A180.962,180.962,0,0,0,308,457.079V518h84v-60.93a180.766,180.766,0,0,0,53.52-22.16L488.6,477.985l59.4-59.4L504.92,375.513a180.963,180.963,0,0,0,22.16-53.52L588,322V238h-60.93a180.971,180.971,0,0,0-22.152-53.516Z" transform="translate(-100.001 -30)"/>
  </g>
</svg>
